# xmcd
#
# Track frame offsets: 
#        150
#        13195
#        25785
#        38063
#        51470
#        64506
#        75825
#        88177
#        101639
#        114423
#        126099
#        138323
#        152629
#        164842
#        174702
#        189823
#        204979
#        218355
#        229311
#        242041
#
# Disc length: 3435 seconds
#
# Revision: 0
# Processed by: cddbd v1.5.2PL0 Copyright (c) Steve Scherf et al.
# Submitted via: ExactAudioCopyFreeDBPlugin 1.0
#
DISCID=050d6914
DTITLE=Various Artist - CD2 Blues 20 essentials
DYEAR=2014
DGENRE=Blues
TTITLE0=Elmore James - Dust my Broom
TTITLE1=Jimmy Reed - Shame Shame Shame
TTITLE2=Sonny Terry and Brownie McGhee - Whoopin the blues
TTITLE3=Big Bill Broonzy - Wee Wee hours blues
TTITLE4=Arthur Crudup - That's allright mama
TTITLE5=Robert Johnson - Cross Road Blues
TTITLE6=Memphis Minnie - me and my chauffeur
TTITLE7=Pearl Dickinson - Little Rock Blues
TTITLE8=Howlin' Wolf - I've got a woman
TTITLE9=Mississippi Fred McDowell - Good  Morning little school girl
TTITLE10=Lightnin’ Hopkins - Howlin Wolf
TTITLE11=Ray Charles - Blues is my middle name
TTITLE12=John Lee Hooker - I'm in the mood
TTITLE13=Buddy Guy - First time I meet the blues
TTITLE14=Muddy Waters - honey Bee
TTITLE15=John Otis - Back luck shadow
TTITLE16=Lightnin’ Hopkins - Mojo Hand
TTITLE17=J.B. Lenoir - Mama, talk to your daughter
TTITLE18=Willie Mae " big mama" thornton - Hound dog
TTITLE19=Screamin' Jay Hawkins - I put a spell on you
EXTD=
EXTT0=
EXTT1=
EXTT2=
EXTT3=
EXTT4=
EXTT5=
EXTT6=
EXTT7=
EXTT8=
EXTT9=
EXTT10=
EXTT11=
EXTT12=
EXTT13=
EXTT14=
EXTT15=
EXTT16=
EXTT17=
EXTT18=
EXTT19=
PLAYORDER=
